REM DIRINDEX 1\6,1\2\7,1\2\8,1\2\9,1\3\10,1\3\11,1\4\12,1\4\13,1\4\14,1\5\15,1\5\16,1\5\17
REM DIRNAME cjc041,folder01,folder02,folder03,folder04,folder05,folder06,folder07,folder08,folder09,folder10,folder11,folder12,folder13,folder14,folder15,folder16
TITLE ""
FILE "3Q_j_0949-0964.mp3" MP3
  TRACK 01 AUDIO
    TITLE "12:cjc041_0146"
    INDEX 01 00:00:00
  TRACK 02 AUDIO
    TITLE "0:"
    INDEX 01 00:01:11
  TRACK 03 AUDIO
    TITLE "13:cjc041_0147"
    INDEX 01 00:01:58
  TRACK 04 AUDIO
    TITLE "0:"
    INDEX 01 00:02:55
  TRACK 05 AUDIO
    TITLE "14:cjc041_0148"
    INDEX 01 00:03:29
  TRACK 06 AUDIO
    TITLE "0:"
    INDEX 01 00:07:25
  TRACK 07 AUDIO
    TITLE "12:cjc041_0149"
    INDEX 01 00:08:09
  TRACK 08 AUDIO
    TITLE "0:"
    INDEX 01 00:09:40
  TRACK 09 AUDIO
    TITLE "13:cjc041_0150"
    INDEX 01 00:10:14
  TRACK 10 AUDIO
    TITLE "0:"
    INDEX 01 00:11:31
  TRACK 11 AUDIO
    TITLE "14:cjc041_0151"
    INDEX 01 00:12:14
  TRACK 12 AUDIO
    TITLE "0:"
    INDEX 01 00:15:38
  TRACK 13 AUDIO
    TITLE "12:cjc041_0152"
    INDEX 01 00:16:18
  TRACK 14 AUDIO
    TITLE "0:"
    INDEX 01 00:17:49
  TRACK 15 AUDIO
    TITLE "13:cjc041_0153"
    INDEX 01 00:18:27
  TRACK 16 AUDIO
    TITLE "0:"
    INDEX 01 00:19:52
  TRACK 17 AUDIO
    TITLE "14:cjc041_0154"
    INDEX 01 00:20:30
  TRACK 18 AUDIO
    TITLE "0:"
    INDEX 01 00:23:46
  TRACK 19 AUDIO
    TITLE "12:cjc041_0155"
    INDEX 01 00:24:29
  TRACK 20 AUDIO
    TITLE "0:"
    INDEX 01 00:26:22
  TRACK 21 AUDIO
    TITLE "13:cjc041_0156"
    INDEX 01 00:26:73
  TRACK 22 AUDIO
    TITLE "0:"
    INDEX 01 00:29:13
  TRACK 23 AUDIO
    TITLE "14:cjc041_0157"
    INDEX 01 00:29:66
  TRACK 24 AUDIO
    TITLE "0:"
    INDEX 01 00:34:34
  TRACK 25 AUDIO
    TITLE "12:cjc041_0158"
    INDEX 01 00:35:12
  TRACK 26 AUDIO
    TITLE "0:"
    INDEX 01 00:37:01
  TRACK 27 AUDIO
    TITLE "13:cjc041_0159"
    INDEX 01 00:37:50
  TRACK 28 AUDIO
    TITLE "0:"
    INDEX 01 00:39:23
  TRACK 29 AUDIO
    TITLE "14:cjc041_0160"
    INDEX 01 00:40:07
  TRACK 30 AUDIO
    TITLE "0:"
    INDEX 01 00:43:37
  TRACK 31 AUDIO
    TITLE "12:cjc041_0161"
    INDEX 01 00:44:16
  TRACK 32 AUDIO
    TITLE "0:"
    INDEX 01 00:46:13
  TRACK 33 AUDIO
    TITLE "13:cjc041_0162"
    INDEX 01 00:46:66
  TRACK 34 AUDIO
    TITLE "0:"
    INDEX 01 00:48:28
  TRACK 35 AUDIO
    TITLE "14:cjc041_0163"
    INDEX 01 00:49:08
  TRACK 36 AUDIO
    TITLE "0:"
    INDEX 01 00:52:49
  TRACK 37 AUDIO
    TITLE "12:cjc041_0164"
    INDEX 01 00:53:33
  TRACK 38 AUDIO
    TITLE "0:"
    INDEX 01 00:54:70
  TRACK 39 AUDIO
    TITLE "13:cjc041_0165"
    INDEX 01 00:55:46
  TRACK 40 AUDIO
    TITLE "0:"
    INDEX 01 00:58:28
  TRACK 41 AUDIO
    TITLE "14:cjc041_0166"
    INDEX 01 00:59:00
  TRACK 42 AUDIO
    TITLE "0:"
    INDEX 01 01:02:34
  TRACK 43 AUDIO
    TITLE "12:cjc041_0167"
    INDEX 01 01:03:12
  TRACK 44 AUDIO
    TITLE "0:"
    INDEX 01 01:04:35
  TRACK 45 AUDIO
    TITLE "13:cjc041_0168"
    INDEX 01 01:05:11
  TRACK 46 AUDIO
    TITLE "0:"
    INDEX 01 01:06:16
  TRACK 47 AUDIO
    TITLE "14:cjc041_0169"
    INDEX 01 01:06:71
  TRACK 48 AUDIO
    TITLE "0:"
    INDEX 01 01:10:08
  TRACK 49 AUDIO
    TITLE "12:cjc041_0170"
    INDEX 01 01:10:61
  TRACK 50 AUDIO
    TITLE "0:"
    INDEX 01 01:12:46
  TRACK 51 AUDIO
    TITLE "13:cjc041_0171"
    INDEX 01 01:13:22
  TRACK 52 AUDIO
    TITLE "0:"
    INDEX 01 01:15:19
  TRACK 53 AUDIO
    TITLE "14:cjc041_0172"
    INDEX 01 01:15:66
  TRACK 54 AUDIO
    TITLE "0:"
    INDEX 01 01:19:05
  TRACK 55 AUDIO
    TITLE "12:cjc041_0173"
    INDEX 01 01:19:66
  TRACK 56 AUDIO
    TITLE "0:"
    INDEX 01 01:21:31
  TRACK 57 AUDIO
    TITLE "13:cjc041_0174"
    INDEX 01 01:22:07
  TRACK 58 AUDIO
    TITLE "0:"
    INDEX 01 01:24:39
  TRACK 59 AUDIO
    TITLE "14:cjc041_0175"
    INDEX 01 01:25:15
  TRACK 60 AUDIO
    TITLE "0:"
    INDEX 01 01:29:13
  TRACK 61 AUDIO
    TITLE "12:cjc041_0176"
    INDEX 01 01:29:72
  TRACK 62 AUDIO
    TITLE "0:"
    INDEX 01 01:31:49
  TRACK 63 AUDIO
    TITLE "13:cjc041_0177"
    INDEX 01 01:32:25
  TRACK 64 AUDIO
    TITLE "0:"
    INDEX 01 01:35:10
  TRACK 65 AUDIO
    TITLE "14:cjc041_0178"
    INDEX 01 01:35:59
  TRACK 66 AUDIO
    TITLE "0:"
    INDEX 01 01:39:10
  TRACK 67 AUDIO
    TITLE "12:cjc041_0179"
    INDEX 01 01:39:66
  TRACK 68 AUDIO
    TITLE "0:"
    INDEX 01 01:42:37
  TRACK 69 AUDIO
    TITLE "13:cjc041_0180"
    INDEX 01 01:43:15
  TRACK 70 AUDIO
    TITLE "0:"
    INDEX 01 01:45:20
  TRACK 71 AUDIO
    TITLE "14:cjc041_0181"
    INDEX 01 01:46:00
  TRACK 72 AUDIO
    TITLE "0:"
    INDEX 01 01:51:70
  TRACK 73 AUDIO
    TITLE "12:cjc041_0182"
    INDEX 01 01:52:53
  TRACK 74 AUDIO
    TITLE "0:"
    INDEX 01 01:54:23
  TRACK 75 AUDIO
    TITLE "13:cjc041_0183"
    INDEX 01 01:55:03
  TRACK 76 AUDIO
    TITLE "0:"
    INDEX 01 01:57:19
  TRACK 77 AUDIO
    TITLE "14:cjc041_0184"
    INDEX 01 01:57:64
  TRACK 78 AUDIO
    TITLE "0:"
    INDEX 01 02:01:11
  TRACK 79 AUDIO
    TITLE "12:cjc041_0185"
    INDEX 01 02:01:68
  TRACK 80 AUDIO
    TITLE "0:"
    INDEX 01 02:03:28
  TRACK 81 AUDIO
    TITLE "13:cjc041_0186"
    INDEX 01 02:04:06
  TRACK 82 AUDIO
    TITLE "0:"
    INDEX 01 02:07:43
  TRACK 83 AUDIO
    TITLE "14:cjc041_0187"
    INDEX 01 02:08:21
  TRACK 84 AUDIO
    TITLE "0:"
    INDEX 01 02:11:15
  TRACK 85 AUDIO
    TITLE "12:cjc041_0188"
    INDEX 01 02:11:72
  TRACK 86 AUDIO
    TITLE "0:"
    INDEX 01 02:13:46
  TRACK 87 AUDIO
    TITLE "13:cjc041_0189"
    INDEX 01 02:14:22
  TRACK 88 AUDIO
    TITLE "0:"
    INDEX 01 02:16:01
  TRACK 89 AUDIO
    TITLE "14:cjc041_0190"
    INDEX 01 02:16:52
  TRACK 90 AUDIO
    TITLE "0:"
    INDEX 01 02:19:25
  TRACK 91 AUDIO
    TITLE "12:cjc041_0191"
    INDEX 01 02:20:09
  TRACK 92 AUDIO
    TITLE "0:"
    INDEX 01 02:21:49
  TRACK 93 AUDIO
    TITLE "13:cjc041_0192"
    INDEX 01 02:22:27
  TRACK 94 AUDIO
    TITLE "0:"
    INDEX 01 02:23:58
  TRACK 95 AUDIO
    TITLE "14:cjc041_0193"
    INDEX 01 02:24:40
  TRACK 96 AUDIO
    TITLE "0:"
    INDEX 01 02:27:46
